# xmcd
#
# Track frame offsets:
#	150
#	34352
#	50365
#	87692
#	109145
#	131135
#	166520
#	194635
#	223997
#	238482
#
# Disc length: 3385 seconds
#
# Revision: 0
# Processed by: cddbd v1.5.1PL0 Copyright (c) Steve Scherf et al.
# Submitted via: dBpowerAMP V4.0
#
DISCID=9d0d370a
DTITLE=Tony Valentino - People, I Got 'em Bad
DYEAR=1997
DGENRE=Blues
TTITLE0=Worried Life Blues
TTITLE1=Dust My Blues
TTITLE2=St Louis Blues
TTITLE3=Goin' To Chicago
TTITLE4=Sweet Sixteen
TTITLE5=Crossroads
TTITLE6=Fellin' Bad Blues
TTITLE7=Stormy Monday Blues
TTITLE8=Highway 49
TTITLE9=My Lover's Prayer
EXTD=
EXTT0=
EXTT1=
EXTT2=
EXTT3=
EXTT4=
EXTT5=
EXTT6=
EXTT7=
EXTT8=
EXTT9=
PLAYORDER=
